<?xml version="1.0" encoding="UTF-8"?>
<svg xmlns="http://www.w3.org/2000/svg" viewBox="0 0 200 200" width="200" height="200">
  <path d="M 77.22,184.23 L 79.42,181.34 L 85.90,172.85 L 84.33,171.59 L 83.88,169.98 L 68.29,169.99 L 67.23,166.21 L 84.64,166.19 L 85.41,165.35 L 80.62,148.60 L 81.70,148.59 L 84.45,148.57 L 87.46,159.09 L 88.73,163.54 L 90.41,163.57 L 92.00,164.79 L 95.59,159.98 L 96.28,159.06 L 94.71,157.88 L 98.14,153.30 L 92.32,153.30 L 92.81,155.08 L 88.32,155.08 L 86.27,147.66 L 86.16,147.29 L 100.08,147.30 L 101.00,150.60 L 101.29,151.66 L 98.12,151.66 L 98.46,152.87 L 98.55,152.75 L 100.12,153.92 L 102.91,150.19 L 103.26,149.72 L 104.34,148.28 L 102.97,147.27 L 102.52,145.61 L 101.95,145.60 L 100.09,145.59 L 98.48,145.57 L 86.84,145.48 L 85.80,141.60 L 89.81,141.63 L 103.29,141.74 L 103.89,140.87 L 99.16,124.13 L 103.18,124.12 L 107.42,139.14 L 109.13,139.02 L 110.67,140.20 L 111.69,138.87 L 109.20,136.96 L 111.15,134.43 L 113.43,136.18 L 117.00,131.56 L 93.30,113.37 L 90.19,117.40 L 83.88,125.55 L 86.72,127.73 L 88.02,126.05 L 89.11,124.63 L 94.70,128.92 L 92.68,131.53 L 92.36,131.94 L 90.89,130.81 L 87.78,134.83 L 83.66,131.67 L 86.03,128.61 L 83.19,126.44 L 67.46,146.78 L 63.89,144.04 L 63.76,144.21 L 67.78,147.30 L 64.33,151.76 L 60.31,148.67 L 61.60,147.00 L 59.38,145.29 L 59.01,145.76 L 58.82,146.01 L 50.82,139.86 L 50.26,139.43 L 48.62,138.18 L 48.64,138.15 L 51.00,135.10 L 52.10,135.95 L 53.86,133.67 L 53.50,133.39 L 52.76,132.82 L 55.01,129.90 L 55.11,129.78 L 56.02,130.48 L 60.14,133.64 L 65.32,137.61 L 64.79,138.30 L 67.01,140.00 L 64.74,142.93 L 67.00,144.67 L 75.43,133.78 L 73.10,131.99 L 70.76,135.01 L 68.58,133.33 L 68.04,134.01 L 57.77,126.13 L 60.15,123.05 L 61.24,123.88 L 62.96,121.65 L 61.87,120.82 L 64.25,117.76 L 74.52,125.64 L 73.98,126.34 L 76.17,128.02 L 73.91,130.94 L 76.24,132.73 L 83.60,123.21 L 81.09,121.29 L 77.96,125.34 L 60.84,112.19 L 62.58,109.94 L 61.11,108.81 L 59.34,111.10 L 55.93,108.49 L 61.69,101.04 L 65.10,103.66 L 64.48,104.45 L 65.95,105.58 L 67.70,103.32 L 84.82,116.46 L 81.81,120.36 L 84.31,122.28 L 90.13,114.77 L 91.98,112.36 L 88.47,109.66 L 87.31,111.17 L 85.22,113.87 L 61.92,95.98 L 61.24,96.86 L 58.20,94.52 L 58.89,93.63 L 50.76,87.39 L 50.34,87.06 L 43.72,81.98 L 40.25,86.47 L 50.48,94.32 L 49.90,95.06 L 51.05,95.94 L 49.80,97.55 L 48.66,96.67 L 47.21,98.54 L 38.93,92.18 L 37.79,92.60 L 37.76,101.25 L 36.52,100.95 L 36.52,102.01 L 34.83,101.60 L 33.89,101.37 L 33.90,100.25 L 31.22,99.60 L 31.25,92.13 L 31.26,88.62 L 31.26,87.39 L 29.18,85.87 L 28.95,85.71 L 28.89,85.72 L 17.21,88.77 L 16.01,86.55 L 14.92,86.83 L 13.68,84.54 L 14.27,84.39 L 14.78,84.26 L 14.18,83.15 L 19.90,81.66 L 20.90,81.40 L 22.32,81.03 L 22.28,79.39 L 14.04,73.07 L 15.37,71.36 L 14.34,70.57 L 15.58,68.97 L 16.61,69.75 L 17.30,68.86 L 28.74,77.64 L 32.06,73.34 L 17.40,62.09 L 18.54,60.62 L 17.88,60.11 L 16.75,61.57 L 16.02,62.51 L 17.32,63.51 L 14.17,67.58 L 13.38,68.59 L 12.31,67.77 L 10.00,66.00 L 13.93,60.91 L 14.41,60.29 L 15.35,61.01 L 16.00,60.16 L 17.38,58.38 L 17.40,58.39 L 19.93,55.12 L 16.86,52.77 L 18.47,50.67 L 22.25,45.75 L 26.75,49.19 L 24.01,52.75 L 21.35,56.21 L 20.95,55.90 L 19.14,58.25 L 19.68,58.67 L 18.97,59.59 L 19.20,59.77 L 24.46,52.96 L 28.30,48.00 L 33.95,52.34 L 34.34,52.64 L 33.87,53.24 L 42.43,59.80 L 43.18,58.83 L 47.99,52.61 L 59.41,61.38 L 57.58,63.75 L 58.99,64.82 L 63.50,68.29 L 59.65,73.28 L 55.13,69.81 L 55.11,69.84 L 53.70,68.76 L 52.67,70.09 L 64.77,79.38 L 67.71,81.63 L 70.25,78.35 L 74.48,72.87 L 76.95,74.77 L 77.67,73.83 L 87.57,81.42 L 88.10,81.83 L 88.64,82.25 L 88.05,83.01 L 101.25,93.14 L 99.18,95.82 L 94.34,102.07 L 91.03,106.35 L 89.65,108.14 L 90.78,109.01 L 92.87,106.31 L 100.21,96.82 L 103.03,93.18 L 101.50,92.01 L 102.29,90.99 L 90.58,82.01 L 90.95,81.54 L 92.03,80.14 L 96.50,74.35 L 97.63,72.89 L 99.33,70.69 L 117.59,84.70 L 114.03,89.30 L 106.48,99.07 L 103.81,97.02 L 102.92,96.34 L 102.22,97.24 L 95.18,106.34 L 92.25,110.14 L 118.20,130.05 L 118.73,129.37 L 117.26,128.24 L 121.18,123.17 L 122.66,124.30 L 126.78,118.97 L 125.32,117.84 L 124.89,116.24 L 109.24,116.25 L 108.16,112.35 L 125.61,112.35 L 126.24,111.53 L 121.53,94.76 L 125.56,94.75 L 129.79,109.80 L 131.49,109.80 L 132.95,110.92 L 134.63,108.76 L 137.32,105.27 L 135.64,103.98 L 137.02,102.19 L 137.95,101.00 L 137.44,100.60 L 135.38,100.64 L 135.86,102.26 L 134.75,102.28 L 135.25,103.98 L 135.78,105.76 L 134.43,105.78 L 131.20,105.84 L 127.93,94.86 L 132.51,94.77 L 133.40,97.76 L 134.52,97.74 L 134.98,99.28 L 137.34,99.24 L 138.59,100.16 L 139.56,98.91 L 141.16,100.14 L 142.36,98.59 L 139.71,96.56 L 141.70,93.99 L 142.04,94.25 L 144.26,95.95 L 145.40,94.48 L 143.92,93.35 L 143.48,91.74 L 140.49,91.74 L 127.85,91.74 L 126.78,87.93 L 135.61,87.93 L 144.27,87.92 L 144.80,87.01 L 142.28,77.81 L 140.20,70.21 L 144.11,70.23 L 147.26,81.73 L 148.16,85.04 L 148.24,85.31 L 150.01,85.32 L 151.60,86.47 L 155.88,80.73 L 154.32,79.56 L 157.58,75.19 L 156.72,74.42 L 156.13,74.42 L 156.29,74.99 L 147.38,75.02 L 145.67,68.93 L 159.48,68.89 L 160.95,74.13 L 164.06,69.95 L 162.57,68.83 L 162.12,67.19 L 146.50,67.15 L 145.45,63.36 L 162.82,63.40 L 163.49,62.58 L 162.97,60.69 L 159.99,49.95 L 158.82,45.75 L 162.79,45.75 L 163.05,46.69 L 166.96,60.77 L 168.59,60.77 L 170.20,61.98 L 171.34,60.45 L 168.88,58.59 L 170.75,56.07 L 173.22,57.93 L 173.73,57.25 L 175.04,58.34 L 172.84,60.82 L 173.15,61.08 L 171.54,62.90 L 172.91,64.06 L 173.35,65.73 L 183.05,65.87 L 189.02,65.95 L 189.20,66.65 L 190.00,69.70 L 187.34,69.66 L 182.38,69.59 L 173.06,69.45 L 172.68,69.45 L 172.07,70.36 L 173.83,76.69 L 176.30,85.54 L 176.77,87.24 L 174.51,87.24 L 172.74,87.24 L 170.26,78.34 L 168.52,72.09 L 166.89,72.08 L 165.42,70.97 L 163.12,74.06 L 163.49,75.36 L 168.06,75.33 L 168.93,78.39 L 171.89,88.75 L 165.74,88.79 L 164.42,84.15 L 163.25,80.06 L 163.83,80.06 L 162.40,75.02 L 161.11,76.74 L 163.13,78.26 L 159.35,83.34 L 157.28,81.78 L 153.02,87.49 L 154.34,88.45 L 154.79,90.13 L 165.91,90.23 L 170.42,90.28 L 170.44,90.33 L 171.47,94.17 L 168.82,94.15 L 162.98,94.09 L 154.06,94.01 L 153.37,94.84 L 153.58,95.60 L 158.05,111.65 L 154.08,111.65 L 150.10,97.34 L 149.91,96.66 L 148.24,96.66 L 146.80,95.56 L 142.83,100.69 L 142.48,101.15 L 144.57,102.76 L 140.65,107.83 L 138.61,106.26 L 137.37,107.86 L 139.91,109.81 L 139.01,110.97 L 137.91,112.40 L 135.37,110.45 L 134.24,111.91 L 135.77,113.09 L 136.21,114.60 L 143.59,114.63 L 151.66,114.67 L 152.71,118.52 L 143.98,118.49 L 135.35,118.45 L 134.77,119.35 L 138.38,132.47 L 139.40,136.17 L 135.44,136.16 L 134.50,132.74 L 131.28,121.06 L 129.44,121.00 L 128.53,120.31 L 127.82,133.34 L 127.66,136.22 L 129.36,137.53 L 130.37,138.30 L 138.21,144.32 L 144.32,135.72 L 151.97,141.31 L 153.73,138.70 L 154.21,137.98 L 156.53,139.63 L 157.02,138.89 L 165.23,144.71 L 167.58,146.37 L 165.42,149.58 L 164.19,148.70 L 163.56,149.65 L 162.59,151.08 L 163.83,151.95 L 161.62,155.23 L 159.71,153.89 L 151.06,147.76 L 151.54,147.04 L 149.22,145.40 L 151.40,142.16 L 145.03,137.51 L 139.50,145.31 L 143.35,148.27 L 143.87,147.61 L 159.25,159.41 L 154.25,165.88 L 147.10,160.39 L 146.74,160.85 L 145.89,160.20 L 146.24,159.73 L 138.87,154.07 L 142.43,149.47 L 132.08,141.52 L 126.56,137.29 L 125.61,136.56 L 121.86,133.68 L 121.41,134.26 L 118.82,132.27 L 111.93,141.17 L 113.54,142.40 L 113.98,144.00 L 129.39,144.03 L 130.38,147.62 L 130.43,147.80 L 130.24,147.80 L 113.16,147.76 L 112.51,148.73 L 113.90,153.73 L 117.18,165.49 L 113.06,165.49 L 109.56,152.93 L 108.88,150.49 L 107.33,150.49 L 105.65,149.25 L 101.42,154.91 L 103.57,156.52 L 101.79,158.90 L 99.73,161.66 L 97.59,160.04 L 93.29,165.79 L 94.69,166.87 L 95.11,168.46 L 110.81,168.61 L 111.83,172.44 L 94.38,172.28 L 93.81,173.14 L 98.47,190.00 L 94.45,189.99 L 90.31,174.97 L 88.55,174.97 L 87.11,173.81 L 85.99,175.28 L 88.47,177.17 L 86.51,179.73 L 84.00,177.81 L 80.73,182.09 L 80.51,182.38 L 79.71,183.43 L 78.41,185.14 L 77.22,184.23 Z" fill="#000000"/>
</svg>
