<?xml version="1.0" encoding="UTF-8"?>
<svg xmlns="http://www.w3.org/2000/svg" viewBox="0 0 200 200" width="200" height="200">
  <path d="M 190.00,160.39 L 189.32,162.81 L 188.80,162.78 L 185.39,162.58 L 185.29,163.71 L 182.00,164.06 L 179.85,165.76 L 175.44,181.61 L 173.66,181.40 L 177.84,165.73 L 176.52,164.03 L 172.41,163.97 L 170.71,165.31 L 166.38,181.59 L 164.58,181.47 L 169.11,163.97 L 163.88,164.03 L 161.83,165.29 L 157.56,181.31 L 155.44,181.37 L 160.01,164.13 L 154.82,164.01 L 152.43,165.55 L 148.00,181.48 L 146.06,181.54 L 150.64,164.21 L 146.02,163.64 L 143.34,165.62 L 138.45,183.82 L 136.42,183.87 L 141.25,165.59 L 140.19,163.89 L 135.04,163.60 L 133.59,165.45 L 128.67,183.73 L 126.30,183.71 L 131.82,164.03 L 125.80,163.93 L 123.62,166.15 L 119.02,183.91 L 117.01,183.88 L 122.32,163.94 L 116.83,163.91 L 114.61,165.53 L 109.44,183.73 L 107.45,183.79 L 112.57,164.29 L 107.20,163.74 L 104.94,165.53 L 98.56,188.35 L 96.36,187.97 L 102.94,163.94 L 96.65,164.20 L 94.40,165.90 L 88.45,188.10 L 86.46,187.98 L 92.86,163.95 L 86.96,163.77 L 84.35,165.82 L 78.67,188.02 L 76.53,187.82 L 82.75,164.14 L 76.77,163.87 L 74.34,165.57 L 68.42,188.38 L 66.20,188.09 L 72.83,164.23 L 66.67,163.97 L 64.42,165.67 L 58.04,188.14 L 55.82,187.85 L 62.56,163.90 L 56.25,163.90 L 54.32,165.77 L 48.17,188.40 L 46.04,188.12 L 52.47,164.00 L 46.49,164.08 L 43.97,165.79 L 38.02,187.98 L 38.00,188.05 L 37.48,189.77 L 34.89,190.00 L 36.00,185.29 L 41.37,163.81 L 34.80,164.07 L 32.44,165.86 L 29.81,176.67 L 29.79,176.74 L 26.14,189.88 L 23.61,189.92 L 27.94,174.18 L 27.95,174.11 L 30.23,164.00 L 22.67,164.21 L 21.46,165.52 L 14.54,189.89 L 10.00,189.87 L 17.74,161.31 L 22.21,144.42 L 26.08,144.32 L 22.38,157.64 L 23.67,159.50 L 26.97,159.50 L 29.21,157.45 L 32.72,144.14 L 34.73,144.17 L 31.15,157.75 L 32.33,159.27 L 36.09,159.26 L 37.97,157.56 L 41.62,144.07 L 43.61,144.19 L 39.93,157.77 L 41.03,159.30 L 44.52,159.63 L 46.27,157.69 L 50.20,144.19 L 52.14,144.13 L 48.44,157.80 L 49.84,159.58 L 52.96,159.93 L 55.24,157.70 L 58.95,144.38 L 60.97,144.33 L 57.11,157.57 L 58.30,159.44 L 62.22,159.51 L 64.10,157.47 L 67.66,144.32 L 69.89,144.17 L 65.83,157.85 L 67.36,159.45 L 70.61,159.28 L 72.86,157.57 L 76.35,144.34 L 78.66,144.28 L 74.54,157.79 L 75.73,159.32 L 79.06,159.57 L 81.30,157.87 L 85.14,144.37 L 87.24,144.39 L 83.28,157.64 L 84.52,159.34 L 87.59,159.51 L 90.06,157.63 L 93.88,144.22 L 95.65,144.09 L 92.21,157.83 L 93.21,159.36 L 96.66,159.53 L 98.85,157.66 L 102.61,144.07 L 104.53,144.11 L 100.97,157.60 L 102.26,159.46 L 105.60,159.63 L 107.65,157.24 L 111.27,144.27 L 113.00,144.66 L 109.65,157.71 L 110.90,159.32 L 113.57,159.25 L 115.51,158.07 L 118.92,146.31 L 120.91,146.43 L 117.74,157.92 L 119.02,159.45 L 122.11,159.53 L 124.35,157.49 L 126.85,146.44 L 129.05,146.47 L 125.88,157.62 L 127.46,159.39 L 130.35,159.57 L 132.15,157.79 L 135.32,146.30 L 137.43,146.24 L 134.24,157.48 L 135.62,159.34 L 138.53,159.44 L 140.78,157.73 L 143.67,146.59 L 145.65,146.37 L 142.21,157.87 L 143.85,159.38 L 146.65,159.57 L 148.91,157.43 L 151.65,146.55 L 154.09,146.31 L 150.67,157.73 L 152.14,159.59 L 155.34,159.59 L 157.14,157.47 L 159.95,146.67 L 162.00,146.53 L 159.22,157.58 L 160.23,159.46 L 163.07,159.47 L 165.37,157.51 L 168.36,146.36 L 170.63,146.47 L 167.34,157.71 L 168.71,159.23 L 171.87,159.40 L 173.58,157.63 L 176.66,146.48 L 178.72,146.34 L 175.66,157.40 L 176.40,158.51 L 180.27,158.40 L 182.08,156.62 L 185.06,146.26 L 187.15,146.29 L 183.97,156.75 L 184.82,157.76 L 186.66,157.36 L 186.01,160.41 L 189.51,160.39 L 190.00,160.39 Z" fill="#000000"/>
</svg>
