<?xml version="1.0" encoding="UTF-8"?>
<svg xmlns="http://www.w3.org/2000/svg" viewBox="0 0 200 200" width="200" height="200">
  <path d="M 174.27,160.40 L 169.38,161.19 L 169.68,157.79 L 166.99,159.97 L 166.21,158.34 L 169.78,155.62 L 170.74,154.89 L 171.04,153.75 L 168.90,155.47 L 165.97,157.81 L 165.78,157.96 L 164.07,159.33 L 164.32,159.87 L 163.68,160.37 L 163.44,159.83 L 161.78,161.16 L 162.03,161.71 L 160.79,162.68 L 160.55,162.14 L 159.30,163.14 L 158.19,164.02 L 160.55,169.06 L 160.13,169.40 L 160.55,170.31 L 160.02,170.74 L 159.59,169.83 L 159.20,170.14 L 156.84,165.10 L 156.23,165.59 L 156.51,166.18 L 155.92,166.65 L 155.65,166.08 L 148.88,171.48 L 151.21,176.47 L 150.81,176.79 L 151.25,177.74 L 150.75,178.15 L 150.31,177.20 L 149.89,177.53 L 147.56,172.54 L 147.02,172.97 L 144.32,175.13 L 144.60,175.75 L 143.93,176.28 L 143.64,175.66 L 136.90,181.05 L 136.16,181.63 L 136.27,182.52 L 136.51,182.39 L 137.43,188.20 L 137.01,188.39 L 137.17,189.46 L 136.15,190.00 L 134.99,183.16 L 135.17,183.05 L 135.10,182.48 L 134.64,182.85 L 134.33,182.18 L 132.35,177.95 L 132.48,177.85 L 130.11,172.92 L 131.42,171.85 L 133.79,176.78 L 133.79,176.79 L 145.32,167.58 L 142.95,162.52 L 143.40,162.16 L 142.97,161.26 L 143.40,160.91 L 143.83,161.82 L 144.20,161.52 L 146.57,166.59 L 146.70,166.48 L 159.44,156.31 L 159.70,156.10 L 157.37,151.12 L 157.81,150.76 L 157.36,149.81 L 157.82,149.44 L 158.27,150.39 L 158.65,150.09 L 160.98,155.07 L 162.10,154.18 L 163.10,139.94 L 162.03,140.11 L 162.16,138.32 L 163.23,138.14 L 164.03,126.74 L 164.10,125.77 L 164.88,114.54 L 163.90,114.70 L 164.02,112.94 L 165.03,112.78 L 166.43,92.86 L 159.27,94.02 L 158.87,99.73 L 162.51,99.14 L 162.32,101.80 L 155.41,102.92 L 155.60,100.13 L 156.96,99.91 L 157.16,97.17 L 157.37,94.17 L 146.17,95.99 L 145.72,102.41 L 145.16,102.50 L 145.08,103.65 L 144.12,103.80 L 144.66,96.24 L 129.90,98.63 L 126.78,99.14 L 126.33,105.51 L 125.86,105.58 L 125.79,106.64 L 125.26,106.73 L 125.33,105.67 L 124.81,105.75 L 125.26,99.39 L 125.13,99.41 L 117.60,100.63 L 113.51,101.30 L 113.07,107.55 L 112.54,107.63 L 112.46,108.81 L 111.94,108.89 L 112.02,107.72 L 111.60,107.79 L 112.04,101.54 L 100.20,103.46 L 100.14,104.33 L 100.35,104.37 L 98.54,110.49 L 98.07,110.41 L 97.71,111.65 L 96.74,111.49 L 97.10,110.26 L 98.92,104.14 L 99.04,104.15 L 99.11,103.88 L 99.11,103.64 L 98.73,103.70 L 98.74,103.57 L 98.75,103.46 L 98.25,103.49 L 98.25,103.49 L 98.23,103.65 L 96.71,104.00 L 94.42,103.27 L 93.74,104.97 L 88.05,103.15 L 85.59,109.32 L 84.29,108.91 L 86.75,102.73 L 84.10,101.88 L 84.30,101.37 L 84.81,100.08 L 79.64,98.43 L 78.80,100.53 L 77.12,104.75 L 75.79,104.33 L 77.39,100.31 L 78.31,97.99 L 65.46,93.87 L 63.72,98.23 L 62.98,100.11 L 61.65,99.68 L 62.31,98.01 L 64.16,93.36 L 53.68,90.01 L 51.21,96.23 L 49.90,95.82 L 52.38,89.57 L 41.55,86.11 L 39.09,92.30 L 37.82,91.89 L 40.31,85.62 L 39.99,85.52 L 40.46,84.34 L 39.97,84.18 L 23.93,79.01 L 24.17,78.39 L 21.80,77.63 L 21.71,77.85 L 21.78,77.87 L 21.52,78.50 L 20.92,78.31 L 21.18,77.66 L 21.23,77.68 L 21.31,77.48 L 10.00,73.84 L 11.32,70.53 L 25.46,75.08 L 25.68,74.54 L 42.24,79.86 L 42.67,78.78 L 45.71,79.75 L 47.40,80.29 L 47.53,79.97 L 48.14,80.16 L 48.33,79.70 L 49.03,79.93 L 48.72,80.71 L 50.39,81.24 L 50.83,80.13 L 52.87,74.99 L 54.19,75.41 L 52.13,80.60 L 51.70,81.66 L 53.11,82.11 L 53.43,82.22 L 58.97,83.99 L 59.30,83.15 L 59.40,82.90 L 61.62,83.61 L 61.49,83.93 L 61.16,84.77 L 62.15,85.09 L 62.47,84.28 L 64.63,78.84 L 65.98,79.27 L 63.80,84.75 L 63.49,85.52 L 68.06,86.98 L 68.31,86.35 L 68.36,86.24 L 69.04,86.46 L 68.99,86.60 L 68.72,87.27 L 73.90,88.92 L 74.11,88.42 L 76.39,82.68 L 77.78,83.13 L 75.48,88.91 L 75.30,89.37 L 78.39,90.36 L 78.53,89.99 L 78.86,89.16 L 81.08,89.87 L 80.73,90.77 L 80.57,91.16 L 85.74,92.81 L 85.82,92.59 L 88.22,86.56 L 89.53,86.98 L 87.12,93.05 L 87.04,93.23 L 87.48,93.37 L 87.55,93.20 L 88.15,91.68 L 97.80,94.77 L 97.10,96.52 L 99.26,97.21 L 99.18,97.34 L 102.93,96.73 L 103.37,90.48 L 103.87,90.40 L 103.95,89.20 L 104.53,89.11 L 104.44,90.31 L 104.87,90.24 L 104.43,96.49 L 108.25,95.87 L 109.22,95.71 L 109.27,95.00 L 109.92,94.89 L 109.86,95.67 L 118.41,94.28 L 118.85,88.01 L 119.36,87.93 L 119.44,86.74 L 119.99,86.65 L 119.91,87.84 L 120.35,87.77 L 119.91,94.04 L 125.04,93.21 L 125.09,92.54 L 125.75,92.43 L 125.70,93.20 L 125.88,93.17 L 131.64,92.24 L 132.08,85.90 L 132.52,85.83 L 132.60,84.69 L 133.21,84.59 L 133.13,85.73 L 133.55,85.66 L 133.11,92.00 L 138.10,91.19 L 139.55,90.95 L 141.52,90.63 L 141.56,89.97 L 142.24,89.86 L 142.19,90.57 L 147.45,89.72 L 147.90,83.41 L 148.31,83.34 L 148.39,82.20 L 149.03,82.10 L 148.95,83.24 L 149.40,83.17 L 148.96,89.47 L 154.05,88.65 L 154.09,88.02 L 154.78,87.91 L 154.73,88.61 L 160.64,87.65 L 161.09,81.36 L 161.54,81.29 L 161.62,80.08 L 162.17,79.99 L 162.08,81.20 L 162.57,81.12 L 162.12,87.41 L 164.62,87.00 L 164.66,86.34 L 165.31,86.23 L 165.26,86.97 L 174.79,85.42 L 175.23,79.18 L 175.65,79.11 L 175.74,77.89 L 176.32,77.79 L 176.24,79.01 L 176.70,78.94 L 176.26,85.18 L 176.69,85.11 L 176.80,83.98 L 176.67,83.95 L 177.82,80.64 L 178.95,77.37 L 178.71,77.41 L 178.84,75.49 L 178.43,75.56 L 178.70,71.53 L 179.23,71.23 L 183.41,70.53 L 183.40,70.76 L 183.90,70.68 L 183.49,76.73 L 182.95,76.82 L 182.81,78.94 L 180.18,79.38 L 178.54,84.12 L 178.45,84.38 L 177.99,84.90 L 178.68,84.78 L 180.79,84.44 L 180.59,87.29 L 180.57,87.55 L 179.07,87.79 L 179.03,88.40 L 178.84,91.13 L 178.27,91.23 L 177.52,91.35 L 177.43,92.59 L 177.24,95.32 L 176.98,99.02 L 177.77,98.89 L 177.64,100.80 L 183.99,99.76 L 183.86,101.71 L 186.14,101.34 L 185.88,104.98 L 186.00,104.96 L 186.52,104.88 L 186.99,104.80 L 187.08,103.50 L 187.16,103.49 L 188.32,103.30 L 188.31,103.41 L 188.23,104.60 L 188.71,104.52 L 189.28,104.43 L 189.68,104.37 L 190.00,104.31 L 187.45,140.61 L 186.91,140.70 L 186.61,140.75 L 185.96,140.85 L 185.39,140.94 L 185.30,142.23 L 184.18,142.41 L 184.17,142.41 L 184.26,141.08 L 183.83,141.15 L 183.36,141.23 L 183.03,145.03 L 182.81,147.50 L 182.77,147.97 L 181.79,159.17 L 174.27,160.40 Z" fill="#000000"/>
</svg>
