<?xml version="1.0" encoding="UTF-8"?>
<svg xmlns="http://www.w3.org/2000/svg" viewBox="0 0 200 200" width="200" height="200">
  <path d="M 89.69,189.79 L 85.11,189.70 L 83.85,189.67 L 80.08,174.93 L 69.54,174.73 L 69.35,173.98 L 51.05,173.63 L 48.06,161.95 L 66.46,162.30 L 66.24,161.43 L 76.92,161.63 L 72.81,145.57 L 62.27,145.37 L 62.05,144.50 L 43.73,144.15 L 40.71,132.37 L 59.10,132.72 L 58.90,131.96 L 69.50,132.16 L 68.60,128.65 L 69.51,128.67 L 67.22,119.72 L 65.01,119.68 L 65.18,120.38 L 51.12,120.11 L 48.43,109.61 L 62.68,109.88 L 62.94,110.88 L 65.16,110.92 L 62.83,101.83 L 62.01,101.81 L 61.06,98.12 L 50.77,97.92 L 50.56,97.10 L 31.97,96.75 L 28.96,84.97 L 47.32,85.32 L 47.16,84.71 L 57.76,84.91 L 53.63,68.77 L 43.50,68.57 L 43.25,67.61 L 24.51,67.26 L 21.54,55.65 L 39.97,56.00 L 39.77,55.25 L 50.35,55.45 L 46.94,42.13 L 47.14,42.13 L 47.06,41.84 L 33.75,41.58 L 34.44,44.27 L 32.22,44.23 L 33.89,50.73 L 18.75,50.44 L 12.04,24.18 L 11.38,21.62 L 10.00,16.23 L 40.17,16.80 L 38.43,10.00 L 49.43,10.00 L 114.17,10.00 L 153.67,10.00 L 154.75,14.32 L 154.74,14.32 L 154.90,14.91 L 126.76,14.78 L 128.44,21.34 L 134.34,21.45 L 134.67,22.73 L 139.68,22.83 L 143.47,37.62 L 138.61,37.53 L 138.92,38.74 L 110.93,38.21 L 110.73,37.43 L 105.73,37.33 L 101.94,22.54 L 106.63,22.63 L 106.29,21.29 L 111.99,21.40 L 110.42,15.30 L 82.79,14.77 L 81.00,14.74 L 79.23,14.70 L 44.96,14.05 L 47.26,23.03 L 63.61,23.34 L 62.30,18.21 L 76.18,18.48 L 79.63,31.96 L 65.64,31.70 L 64.29,26.38 L 47.92,26.07 L 51.69,40.79 L 52.58,40.81 L 52.67,41.16 L 63.27,41.36 L 63.44,42.02 L 82.06,42.38 L 85.13,54.40 L 66.27,54.04 L 66.45,54.73 L 56.19,54.53 L 58.18,62.32 L 60.23,70.33 L 70.70,70.53 L 70.91,71.37 L 72.27,71.39 L 89.43,71.72 L 92.50,83.72 L 73.85,83.36 L 74.01,83.98 L 63.34,83.78 L 67.31,99.29 L 82.83,99.59 L 91.08,131.81 L 75.33,131.50 L 79.34,147.16 L 89.86,147.36 L 90.06,148.15 L 108.41,148.50 L 111.43,160.33 L 92.79,159.97 L 92.99,160.78 L 82.60,160.58 L 86.67,176.47 L 97.09,176.67 L 97.27,177.40 L 115.85,177.76 L 118.88,189.60 L 100.36,189.24 L 100.55,190.00 L 89.69,189.79 Z" fill="#000000"/>
</svg>
